<?xml version="1.0" encoding="UTF-8" standalone="no"?>
<svg
   width="64px"
   height="64px"
   viewBox="0 0 24 24"
   fill="currentColor"
   stroke=""
   version="1.1"
   id="svg10"
   sodipodi:docname="trash-icon.svg"
   inkscape:version="1.2.2 (b0a8486541, 2022-12-01)"
   xmlns:inkscape="http://www.inkscape.org/namespaces/inkscape"
   xmlns:sodipodi="http://sodipodi.sourceforge.net/DTD/sodipodi-0.dtd"
   xmlns="http://www.w3.org/2000/svg"
   xmlns:svg="http://www.w3.org/2000/svg">
  <defs
     id="defs14" />
  <sodipodi:namedview
     id="namedview12"
     pagecolor="#ffffff"
     bordercolor="#000000"
     borderopacity="0.25"
     inkscape:showpageshadow="2"
     inkscape:pageopacity="0.0"
     inkscape:pagecheckerboard="0"
     inkscape:deskcolor="#d1d1d1"
     showgrid="false"
     inkscape:zoom="13.5625"
     inkscape:cx="32"
     inkscape:cy="33.069124"
     inkscape:current-layer="svg10" />
  <g
     stroke-width="0"
     id="g2" />
  <g
     stroke-linecap="round"
     stroke-linejoin="round"
     id="g4" />
  <path
     style="color:#000000;fill:currentColor;stroke-linecap:round;stroke-linejoin:round;-inkscape-stroke:none"
     d="M 11.306641,2 C 10.477241,2 9.9448988,1.9725724 9.34375,2.2089844 8.8763949,2.3927826 8.4627912,2.6909193 8.140625,3.0761719 7.726176,3.5717591 7.584543,4.0842818 7.3222656,4.8710937 L 7.2792969,5 H 6 4 A 1,1 0 0 0 3,6 1,1 0 0 0 4,7 h 1 v 9.199219 c 0,1.680198 -0.051647,2.660918 0.4355469,3.617187 0.3834431,0.752568 0.9955197,1.364645 1.7480468,1.748047 C 8.139878,22.051737 9.1206229,22 10.800781,22 h 2.398438 c 1.680198,0 2.66091,0.05168 3.617187,-0.435547 0.752557,-0.38341 1.364637,-0.99549 1.748047,-1.748047 C 19.051681,18.860129 19,17.879417 19,16.199219 V 7 h 1 A 1,1 0 0 0 21,6 1,1 0 0 0 20,5 H 18 16.720703 L 16.677734,4.8710937 C 16.415423,4.0842384 16.273683,3.5716723 15.859375,3.0761719 15.537247,2.6909827 15.123645,2.3927925 14.65625,2.2089844 14.055102,1.9725796 13.522759,2 12.693359,2 Z m 0,2 h 1.386718 c 0.8294,0 1.125817,0.029158 1.230469,0.070312 0.155804,0.061272 0.294873,0.1605522 0.402344,0.2890625 C 14.366506,4.4076131 14.493,4.7775919 14.580078,5 H 9.4199219 C 9.5069806,4.7776048 9.6335283,4.4075645 9.6738281,4.359375 9.7812415,4.230928 9.9203476,4.131594 10.076172,4.0703125 10.180802,4.0291648 10.477241,4 11.306641,4 Z M 7,7 h 10 v 9.199219 c 0,1.680198 -0.05198,2.381662 -0.21875,2.708984 -0.191789,0.376443 -0.496604,0.681258 -0.873047,0.873047 C 15.580881,19.948022 14.879417,20 13.199219,20 H 10.800781 C 9.1206229,20 8.4189714,19.947965 8.0917969,19.78125 7.7153452,19.589453 7.4105463,19.284634 7.21875,18.908203 7.0519845,18.580874 7,17.879417 7,16.199219 Z m 3,2 a 1,1 0 0 0 -1,1 v 7 a 1,1 0 0 0 1,1 1,1 0 0 0 1,-1 V 10 A 1,1 0 0 0 10,9 Z m 4,0 a 1,1 0 0 0 -1,1 v 7 a 1,1 0 0 0 1,1 1,1 0 0 0 1,-1 V 10 A 1,1 0 0 0 14,9 Z"
     id="path6" />
</svg>
